<?xml version="1.0" encoding="utf-8"?>
<!-- Generator: Adobe Illustrator 26.3.1, SVG Export Plug-In . SVG Version: 6.00 Build 0)  -->
<svg version="1.1" id="Layer_1" xmlns="http://www.w3.org/2000/svg" xmlns:xlink="http://www.w3.org/1999/xlink" x="0px" y="0px"
	 viewBox="0 0 800 174.93" style="enable-background:new 0 0 800 174.93;" xml:space="preserve">
<style type="text/css">
	.st0{fill:#4B1111;}
	.st1{fill:#FFFFFF;}
	.st2{fill:#B1B3B6;}
	.st3{fill:#5D0025;}
</style>
<g>
	<g>
		<rect x="20.4" y="15.11" class="st0" width="143.84" height="144.98"/>
		<g>
			<polygon class="st1" points="145.14,72.81 134.46,72.81 133.84,72.81 133.57,73.37 125.82,89.5 118.05,73.37 117.78,72.81 
				117.16,72.81 106.84,72.81 105.86,72.81 105.86,73.79 105.86,79.3 105.86,80.28 106.84,80.28 108.6,80.28 108.6,103.37 
				106.69,103.37 105.71,103.37 105.71,104.35 105.71,109.85 105.71,110.84 106.69,110.84 118.29,110.84 119.27,110.84 
				119.27,109.85 119.27,104.35 119.27,103.37 118.29,103.37 116.28,103.37 116.28,86.98 124.94,104.84 125.83,106.66 
				126.71,104.84 135.46,86.94 135.46,103.37 133.55,103.37 132.57,103.37 132.57,104.35 132.57,109.85 132.57,110.84 
				133.55,110.84 145.14,110.84 146.13,110.84 146.13,109.85 146.13,104.35 146.13,103.37 145.14,103.37 143.15,103.37 
				143.15,80.28 145.14,80.28 146.13,80.28 146.13,79.3 146.13,73.79 146.13,72.81 			"/>
			<path class="st1" d="M77.81,103.35h-3.08L64.7,80.15h0.96h0.98v-0.98v-5.51v-0.99h-0.98H51.49h-0.99v0.99v5.51v0.98h0.99h1.23
				l-10.03,23.19h-3.18h-0.99v0.98v5.5v0.99h0.99h12.65h0.98v-0.99v-5.5v-0.98h-0.98h-1.15l1.67-3.86h12.07l1.66,3.86h-1.26h-0.99
				v0.98v5.5v0.99h0.99h12.66h0.99v-0.99v-5.5v-0.98H77.81z M61.52,92.02h-5.6l2.8-6.48L61.52,92.02z"/>
			<polygon class="st1" points="132.87,43.82 51.51,43.82 50.39,43.82 50.39,44.94 50.39,66.68 50.39,67.8 51.51,67.8 65.56,67.8 
				66.69,67.8 66.69,66.68 66.69,58.6 84.05,58.6 84.05,115.88 75.97,115.88 74.85,115.88 74.85,117 74.85,131.05 74.85,132.18 
				75.97,132.18 108.41,132.18 109.54,132.18 109.54,131.05 109.54,117 109.54,115.88 108.41,115.88 100.35,115.88 100.35,58.6 
				117.6,58.6 117.6,66.57 117.6,67.7 118.73,67.7 132.87,67.7 134,67.7 134,66.57 134,44.94 134,43.82 			"/>
			<g>
				<polygon class="st2" points="102.76,122.57 106.19,119.02 106.19,128.73 102.76,125.44 				"/>
				<polygon class="st2" points="97.03,119.28 93.59,122.67 93.59,51.85 97.03,55.28 				"/>
				<polygon class="st2" points="57.28,50.61 53.74,47.17 128.93,47.17 124.48,50.61 				"/>
				<polygon class="st2" points="130.75,64.55 127.32,61.27 127.32,52.52 130.75,48.99 				"/>
			</g>
		</g>
		<path class="st3" d="M169.36,157.21c0-1.59,1.29-2.88,2.88-2.88c1.59,0,2.88,1.29,2.88,2.88c0,1.59-1.29,2.88-2.88,2.88
			C170.65,160.09,169.36,158.8,169.36,157.21z M174.42,157.21c0-1.35-0.97-2.32-2.18-2.32c-1.21,0-2.18,0.97-2.18,2.32
			c0,1.35,0.97,2.32,2.18,2.32C173.45,159.53,174.42,158.56,174.42,157.21z M171.13,155.56h1.21c0.78,0,1.21,0.27,1.21,0.96
			c0,0.56-0.32,0.83-0.85,0.88l0.88,1.43h-0.62l-0.85-1.41h-0.37v1.41h-0.61V155.56z M171.74,156.96h0.54
			c0.36,0,0.67-0.05,0.67-0.49c0-0.38-0.35-0.45-0.66-0.45h-0.54V156.96z"/>
	</g>
	<g>
		<path d="M214.27,57.08h-3.61V38.13h-6.48v-3.09h16.57v3.09h-6.48V57.08z"/>
		<path d="M238.14,57.08h-12.47V35.04h12.47v3.04h-8.86v6h8.31v3.02h-8.31v6.92h8.86V57.08z"/>
		<path d="M260.68,57.08h-4.15l-5.52-9.01l-5.56,9.01h-3.86l7.31-11.43l-6.85-10.61h4.01l5.09,8.33l5.1-8.33h3.89l-6.89,10.67
			L260.68,57.08z"/>
		<path d="M278.87,57.08l-2.2-6.12h-8.43l-2.16,6.12h-3.8l8.25-22.13h3.92l8.25,22.13H278.87z M275.72,47.85l-2.06-6
			c-0.15-0.4-0.36-1.03-0.63-1.9c-0.27-0.87-0.45-1.5-0.55-1.9c-0.27,1.23-0.67,2.59-1.19,4.05l-1.99,5.74H275.72z"/>
		<path d="M299.86,51.09c0,1.96-0.71,3.5-2.13,4.61c-1.42,1.11-3.37,1.67-5.86,1.67c-2.49,0-4.53-0.39-6.12-1.16v-3.41
			c1,0.47,2.07,0.84,3.2,1.11c1.13,0.27,2.18,0.41,3.16,0.41c1.43,0,2.48-0.27,3.16-0.82c0.68-0.54,1.02-1.27,1.02-2.19
			c0-0.82-0.31-1.52-0.93-2.09c-0.62-0.57-1.91-1.25-3.86-2.03c-2.01-0.82-3.43-1.74-4.25-2.79c-0.82-1.05-1.23-2.3-1.23-3.77
			c0-1.84,0.65-3.29,1.96-4.34c1.31-1.05,3.06-1.58,5.26-1.58c2.11,0,4.21,0.46,6.3,1.39l-1.14,2.94c-1.96-0.82-3.71-1.23-5.25-1.23
			c-1.16,0-2.05,0.25-2.65,0.76c-0.6,0.51-0.9,1.18-0.9,2.01c0,0.57,0.12,1.06,0.36,1.47s0.64,0.79,1.19,1.15s1.55,0.84,2.98,1.43
			c1.62,0.67,2.81,1.3,3.56,1.89c0.76,0.58,1.31,1.24,1.66,1.97C299.69,49.23,299.86,50.1,299.86,51.09z"/>
		<path d="M328.91,57.08l-2.2-6.12h-8.43l-2.16,6.12h-3.8l8.25-22.13h3.92l8.25,22.13H328.91z M325.76,47.85l-2.06-6
			c-0.15-0.4-0.36-1.03-0.63-1.9c-0.27-0.87-0.45-1.5-0.55-1.9c-0.27,1.23-0.67,2.59-1.19,4.05l-1.99,5.74H325.76z"/>
		<path d="M335.73,51.24c0-1.32,0.32-2.46,0.96-3.45c0.64-0.98,1.8-1.95,3.48-2.92c-0.95-1.11-1.6-2.06-1.95-2.83
			c-0.35-0.77-0.52-1.57-0.52-2.39c0-1.53,0.55-2.73,1.64-3.62c1.09-0.89,2.56-1.33,4.39-1.33c1.78,0,3.18,0.43,4.19,1.29
			c1.01,0.86,1.52,2.02,1.52,3.48c0,1.15-0.34,2.19-1.02,3.12c-0.68,0.93-1.81,1.87-3.4,2.81l5.21,5.03
			c0.82-1.07,1.49-2.65,2.04-4.74h3.65c-0.7,2.86-1.83,5.18-3.38,6.98l4.54,4.39h-4.57l-2.25-2.19c-1.03,0.83-2.12,1.44-3.28,1.86
			c-1.16,0.42-2.44,0.63-3.85,0.63c-2.31,0-4.13-0.55-5.44-1.64S335.73,53.14,335.73,51.24z M343.33,54.33
			c1.84,0,3.41-0.54,4.72-1.62l-5.77-5.68c-1.07,0.68-1.8,1.33-2.2,1.92c-0.4,0.6-0.6,1.28-0.6,2.04c0,0.98,0.35,1.79,1.05,2.4
			C341.21,54.02,342.15,54.33,343.33,54.33z M341.08,39.78c0,0.63,0.17,1.23,0.51,1.79c0.34,0.56,0.81,1.16,1.41,1.79
			c1.14-0.64,1.93-1.24,2.39-1.8c0.46-0.56,0.68-1.18,0.68-1.88c0-0.65-0.22-1.17-0.66-1.57c-0.44-0.39-1.02-0.59-1.74-0.59
			c-0.79,0-1.42,0.2-1.89,0.61C341.31,38.56,341.08,39.1,341.08,39.78z"/>
		<path d="M371.12,57.08l-6.39-18.41h-0.12c0.17,2.73,0.26,5.3,0.26,7.69v10.72h-3.27V35.04h5.08l6.12,17.53h0.09l6.3-17.53h5.1
			v22.04h-3.47v-10.9c0-1.1,0.03-2.52,0.08-4.28s0.1-2.82,0.14-3.2h-0.12l-6.62,18.38H371.12z"/>
		<path d="M418.46,35.04V49.3c0,1.63-0.35,3.05-1.05,4.27c-0.7,1.22-1.71,2.16-3.03,2.82c-1.32,0.66-2.9,0.99-4.74,0.99
			c-2.73,0-4.86-0.72-6.38-2.17s-2.28-3.44-2.28-5.97v-14.2h3.62v13.94c0,1.82,0.42,3.16,1.27,4.03c0.84,0.86,2.14,1.3,3.89,1.3
			c3.4,0,5.09-1.78,5.09-5.35V35.04H418.46z"/>
		<path d="M444.01,57.08h-4.42l-10.84-17.56h-0.12l0.08,0.98c0.14,1.87,0.21,3.58,0.21,5.13v11.46h-3.27V35.04h4.37l10.81,17.47
			h0.09c-0.02-0.23-0.06-1.07-0.12-2.52c-0.06-1.45-0.09-2.59-0.09-3.4V35.04h3.3V57.08z"/>
		<path d="M451.37,57.08V35.04h3.6v22.04H451.37z"/>
		<path d="M474.9,35.04h3.74l-7.72,22.04h-3.8l-7.69-22.04h3.71l4.6,13.7c0.24,0.65,0.5,1.49,0.77,2.52c0.27,1.03,0.45,1.8,0.53,2.3
			c0.13-0.76,0.33-1.65,0.6-2.65c0.27-1,0.49-1.75,0.66-2.23L474.9,35.04z"/>
		<path d="M495.56,57.08h-12.47V35.04h12.47v3.04h-8.86v6H495v3.02h-8.31v6.92h8.86V57.08z"/>
		<path d="M505.47,48.27v8.8h-3.6V35.04h6.22c2.84,0,4.95,0.53,6.32,1.6c1.37,1.06,2.05,2.67,2.05,4.82c0,2.75-1.43,4.7-4.28,5.87
			l6.23,9.75h-4.1l-5.28-8.8H505.47z M505.47,45.29h2.5c1.68,0,2.89-0.31,3.65-0.94c0.76-0.62,1.13-1.55,1.13-2.77
			c0-1.25-0.41-2.14-1.22-2.68c-0.82-0.55-2.04-0.82-3.68-0.82h-2.38V45.29z"/>
		<path d="M535.85,51.09c0,1.96-0.71,3.5-2.13,4.61c-1.42,1.11-3.37,1.67-5.86,1.67c-2.49,0-4.53-0.39-6.12-1.16v-3.41
			c1,0.47,2.07,0.84,3.2,1.11c1.13,0.27,2.18,0.41,3.16,0.41c1.43,0,2.48-0.27,3.16-0.82s1.02-1.27,1.02-2.19
			c0-0.82-0.31-1.52-0.93-2.09c-0.62-0.57-1.91-1.25-3.86-2.03c-2.01-0.82-3.43-1.74-4.25-2.79c-0.82-1.05-1.23-2.3-1.23-3.77
			c0-1.84,0.65-3.29,1.96-4.34c1.31-1.05,3.06-1.58,5.26-1.58c2.11,0,4.21,0.46,6.3,1.39l-1.14,2.94c-1.96-0.82-3.71-1.23-5.25-1.23
			c-1.16,0-2.05,0.25-2.65,0.76c-0.6,0.51-0.9,1.18-0.9,2.01c0,0.57,0.12,1.06,0.36,1.47s0.64,0.79,1.19,1.15
			c0.55,0.36,1.55,0.84,2.98,1.43c1.62,0.67,2.81,1.3,3.56,1.89c0.76,0.58,1.31,1.24,1.66,1.97
			C535.68,49.23,535.85,50.1,535.85,51.09z"/>
		<path d="M541.67,57.08V35.04h3.6v22.04H541.67z"/>
		<path d="M560.24,57.08h-3.61V38.13h-6.48v-3.09h16.57v3.09h-6.48V57.08z"/>
		<path d="M577.87,45.09l5.22-10.05h3.92l-7.34,13.49v8.55h-3.62v-8.43l-7.31-13.61h3.92L577.87,45.09z"/>
	</g>
	<g>
		<path d="M223.37,129.7h-5.12V90.17h-13.96v-4.55h33.05v4.55h-13.96V129.7z"/>
		<path d="M257.17,130.3c-4.88,0-8.74-1.49-11.56-4.46c-2.82-2.98-4.24-7.11-4.24-12.39c0-5.33,1.31-9.56,3.94-12.7
			c2.62-3.14,6.15-4.7,10.57-4.7c4.14,0,7.42,1.36,9.83,4.08s3.62,6.32,3.62,10.78v3.16h-22.77c0.1,3.88,1.08,6.82,2.94,8.83
			c1.86,2.01,4.48,3.02,7.86,3.02c3.56,0,7.07-0.74,10.55-2.23v4.46c-1.77,0.76-3.44,1.31-5.02,1.64
			C261.31,130.14,259.41,130.3,257.17,130.3z M255.82,100.24c-2.65,0-4.77,0.87-6.35,2.6c-1.58,1.73-2.51,4.12-2.79,7.17h17.28
			c0-3.15-0.7-5.57-2.11-7.25C260.44,101.08,258.43,100.24,255.82,100.24z"/>
		<path d="M291.07,130.3c-4.78,0-8.49-1.47-11.11-4.42c-2.62-2.94-3.94-7.11-3.94-12.5c0-5.53,1.33-9.8,4-12.81
			s6.46-4.52,11.38-4.52c1.59,0,3.18,0.17,4.76,0.51c1.59,0.34,2.84,0.74,3.74,1.21l-1.54,4.25c-1.11-0.44-2.31-0.81-3.62-1.1
			c-1.31-0.29-2.46-0.44-3.47-0.44c-6.71,0-10.07,4.28-10.07,12.85c0,4.06,0.82,7.17,2.46,9.34c1.64,2.17,4.06,3.26,7.28,3.26
			c2.75,0,5.58-0.59,8.47-1.78v4.43C297.21,129.73,294.42,130.3,291.07,130.3z"/>
		<path d="M329.87,129.7v-21.38c0-2.69-0.61-4.7-1.84-6.03c-1.23-1.33-3.15-1.99-5.76-1.99c-3.48,0-6.01,0.94-7.61,2.83
			c-1.6,1.89-2.4,4.99-2.4,9.29v17.28h-5.01V82.79h5.01v14.2c0,1.71-0.08,3.13-0.24,4.25h0.3c0.99-1.59,2.39-2.84,4.21-3.75
			s3.9-1.37,6.23-1.37c4.04,0,7.07,0.96,9.09,2.88c2.02,1.92,3.03,4.97,3.03,9.15v21.56H329.87z"/>
		<path d="M367.77,129.7v-21.38c0-2.69-0.61-4.7-1.84-6.03c-1.23-1.33-3.15-1.99-5.76-1.99c-3.46,0-5.99,0.93-7.6,2.8
			s-2.41,4.96-2.41,9.26v17.34h-5.01V96.66h4.07l0.82,4.52h0.24c1.03-1.63,2.46-2.89,4.31-3.78c1.85-0.89,3.91-1.34,6.18-1.34
			c3.98,0,6.97,0.96,8.99,2.88s3.02,4.99,3.02,9.21v21.56H367.77z"/>
		<path d="M411.58,113.15c0,5.39-1.36,9.59-4.07,12.62c-2.71,3.03-6.46,4.54-11.25,4.54c-2.95,0-5.58-0.69-7.87-2.08
			c-2.29-1.38-4.06-3.38-5.31-5.97c-1.25-2.6-1.87-5.63-1.87-9.11c0-5.39,1.35-9.58,4.04-12.59c2.69-3,6.43-4.51,11.22-4.51
			c4.62,0,8.3,1.54,11.02,4.61C410.22,103.74,411.58,107.9,411.58,113.15z M386.4,113.15c0,4.22,0.84,7.44,2.53,9.65
			c1.69,2.21,4.17,3.32,7.45,3.32s5.76-1.1,7.46-3.3c1.7-2.2,2.55-5.42,2.55-9.66c0-4.2-0.85-7.39-2.55-9.57
			c-1.7-2.18-4.21-3.27-7.52-3.27c-3.28,0-5.75,1.07-7.42,3.22S386.4,108.89,386.4,113.15z"/>
		<path d="M425.36,129.7h-5.01V82.79h5.01V129.7z"/>
		<path d="M464.5,113.15c0,5.39-1.36,9.59-4.07,12.62c-2.71,3.03-6.46,4.54-11.25,4.54c-2.95,0-5.58-0.69-7.87-2.08
			c-2.29-1.38-4.06-3.38-5.31-5.97c-1.25-2.6-1.87-5.63-1.87-9.11c0-5.39,1.35-9.58,4.04-12.59c2.69-3,6.43-4.51,11.22-4.51
			c4.62,0,8.3,1.54,11.02,4.61C463.14,103.74,464.5,107.9,464.5,113.15z M439.32,113.15c0,4.22,0.84,7.44,2.53,9.65
			c1.69,2.21,4.17,3.32,7.45,3.32c3.28,0,5.76-1.1,7.46-3.3c1.7-2.2,2.55-5.42,2.55-9.66c0-4.2-0.85-7.39-2.55-9.57
			c-1.7-2.18-4.21-3.27-7.52-3.27c-3.28,0-5.75,1.07-7.42,3.22C440.16,105.68,439.32,108.89,439.32,113.15z"/>
		<path d="M500.32,96.66v3.17l-6.12,0.72c0.56,0.7,1.06,1.62,1.51,2.76s0.66,2.42,0.66,3.84c0,3.24-1.11,5.82-3.32,7.75
			s-5.25,2.89-9.11,2.89c-0.99,0-1.91-0.08-2.77-0.24c-2.13,1.12-3.2,2.54-3.2,4.25c0,0.9,0.37,1.57,1.12,2.01
			c0.74,0.43,2.02,0.65,3.83,0.65h5.85c3.58,0,6.33,0.75,8.25,2.26c1.92,1.5,2.88,3.7,2.88,6.57c0,3.66-1.47,6.45-4.4,8.37
			c-2.94,1.92-7.22,2.88-12.85,2.88c-4.32,0-7.65-0.8-9.99-2.41c-2.34-1.61-3.51-3.88-3.51-6.81c0-2.01,0.64-3.75,1.93-5.21
			c1.29-1.47,3.1-2.46,5.43-2.99c-0.84-0.38-1.55-0.98-2.12-1.78c-0.57-0.8-0.86-1.74-0.86-2.8c0-1.21,0.32-2.26,0.96-3.16
			c0.64-0.91,1.66-1.78,3.05-2.62c-1.71-0.7-3.1-1.9-4.18-3.59c-1.07-1.69-1.61-3.62-1.61-5.79c0-3.62,1.09-6.41,3.26-8.37
			c2.17-1.96,5.24-2.94,9.22-2.94c1.73,0,3.29,0.2,4.67,0.6H500.32z M473.96,135.25c0,1.79,0.76,3.15,2.26,4.07
			c1.51,0.93,3.67,1.39,6.48,1.39c4.2,0,7.31-0.63,9.33-1.89c2.02-1.26,3.03-2.96,3.03-5.11c0-1.79-0.55-3.03-1.66-3.73
			c-1.11-0.69-3.19-1.04-6.24-1.04h-6c-2.27,0-4.04,0.55-5.31,1.63S473.96,133.22,473.96,135.25z M476.68,107.24
			c0,2.31,0.65,4.06,1.96,5.25c1.31,1.19,3.13,1.78,5.46,1.78c4.89,0,7.33-2.37,7.33-7.12c0-4.97-2.47-7.45-7.42-7.45
			c-2.35,0-4.16,0.63-5.43,1.9S476.68,104.75,476.68,107.24z"/>
		<path d="M501.86,96.66h5.37l7.24,18.85c1.59,4.3,2.57,7.41,2.95,9.32h0.24c0.26-1.03,0.81-2.78,1.64-5.26
			c0.83-2.48,3.56-10.12,8.19-22.9h5.37l-14.2,37.63c-1.41,3.72-3.05,6.36-4.93,7.92c-1.88,1.56-4.18,2.34-6.92,2.34
			c-1.53,0-3.04-0.17-4.52-0.51v-4.01c1.11,0.24,2.34,0.36,3.71,0.36c3.44,0,5.89-1.93,7.36-5.79l1.84-4.7L501.86,96.66z"/>
		<path d="M579.89,117.97c0,3.88-1.41,6.91-4.22,9.08c-2.81,2.17-6.63,3.26-11.46,3.26c-5.23,0-9.25-0.67-12.06-2.02v-4.94
			c1.81,0.76,3.78,1.37,5.91,1.81c2.13,0.44,4.24,0.66,6.33,0.66c3.42,0,5.99-0.65,7.72-1.94c1.73-1.3,2.59-3.1,2.59-5.41
			c0-1.53-0.31-2.78-0.92-3.75c-0.61-0.98-1.64-1.87-3.08-2.7c-1.44-0.83-3.62-1.76-6.56-2.81c-4.1-1.47-7.03-3.21-8.79-5.22
			c-1.76-2.01-2.64-4.63-2.64-7.87c0-3.4,1.27-6.1,3.83-8.11c2.55-2.01,5.93-3.02,10.13-3.02c4.38,0,8.41,0.8,12.09,2.41l-1.6,4.46
			c-3.64-1.53-7.18-2.29-10.61-2.29c-2.71,0-4.83,0.58-6.36,1.75c-1.53,1.17-2.29,2.78-2.29,4.86c0,1.53,0.28,2.78,0.84,3.75
			c0.56,0.98,1.51,1.87,2.85,2.68c1.34,0.82,3.38,1.71,6.14,2.7c4.62,1.65,7.81,3.42,9.54,5.31
			C579.02,112.5,579.89,114.96,579.89,117.97z"/>
		<path d="M602.11,130.3c-4.88,0-8.74-1.49-11.56-4.46c-2.82-2.98-4.24-7.11-4.24-12.39c0-5.33,1.31-9.56,3.94-12.7
			c2.62-3.14,6.15-4.7,10.57-4.7c4.14,0,7.42,1.36,9.83,4.08s3.62,6.32,3.62,10.78v3.16h-22.77c0.1,3.88,1.08,6.82,2.94,8.83
			c1.86,2.01,4.48,3.02,7.86,3.02c3.56,0,7.07-0.74,10.55-2.23v4.46c-1.77,0.76-3.44,1.31-5.02,1.64
			C606.25,130.14,604.34,130.3,602.11,130.3z M600.75,100.24c-2.65,0-4.77,0.87-6.35,2.6c-1.58,1.73-2.51,4.12-2.79,7.17h17.28
			c0-3.15-0.7-5.57-2.11-7.25S603.37,100.24,600.75,100.24z"/>
		<path d="M637.87,96.05c1.47,0,2.78,0.12,3.95,0.36l-0.69,4.64c-1.37-0.3-2.57-0.45-3.62-0.45c-2.67,0-4.96,1.09-6.86,3.26
			c-1.9,2.17-2.85,4.88-2.85,8.11v17.73h-5.01V96.66h4.13l0.57,6.12h0.24c1.23-2.15,2.7-3.81,4.43-4.97
			C633.9,96.63,635.8,96.05,637.87,96.05z"/>
		<path d="M655.23,129.7l-12.54-33.05h5.37l7.12,19.6c1.61,4.58,2.55,7.56,2.83,8.92h0.24c0.22-1.06,0.92-3.27,2.09-6.62
			c1.18-3.35,3.81-10.65,7.92-21.91h5.37l-12.54,33.05H655.23z"/>
		<path d="M678.51,87.7c0-1.14,0.28-1.98,0.84-2.52c0.56-0.53,1.27-0.8,2.11-0.8c0.8,0,1.5,0.27,2.08,0.81
			c0.58,0.54,0.87,1.38,0.87,2.5c0,1.13-0.29,1.97-0.87,2.52c-0.58,0.55-1.28,0.83-2.08,0.83c-0.84,0-1.55-0.28-2.11-0.83
			C678.79,89.67,678.51,88.83,678.51,87.7z M683.94,129.7h-5.01V96.66h5.01V129.7z"/>
		<path d="M707.76,130.3c-4.78,0-8.49-1.47-11.11-4.42c-2.62-2.94-3.94-7.11-3.94-12.5c0-5.53,1.33-9.8,4-12.81
			s6.46-4.52,11.38-4.52c1.59,0,3.18,0.17,4.76,0.51c1.59,0.34,2.84,0.74,3.74,1.21l-1.54,4.25c-1.11-0.44-2.31-0.81-3.62-1.1
			c-1.31-0.29-2.46-0.44-3.47-0.44c-6.71,0-10.07,4.28-10.07,12.85c0,4.06,0.82,7.17,2.46,9.34c1.64,2.17,4.06,3.26,7.28,3.26
			c2.75,0,5.58-0.59,8.47-1.78v4.43C713.9,129.73,711.11,130.3,707.76,130.3z"/>
		<path d="M737.91,130.3c-4.88,0-8.74-1.49-11.56-4.46c-2.82-2.98-4.24-7.11-4.24-12.39c0-5.33,1.31-9.56,3.94-12.7
			c2.62-3.14,6.15-4.7,10.57-4.7c4.14,0,7.42,1.36,9.83,4.08s3.62,6.32,3.62,10.78v3.16h-22.77c0.1,3.88,1.08,6.82,2.94,8.83
			c1.86,2.01,4.48,3.02,7.86,3.02c3.56,0,7.07-0.74,10.55-2.23v4.46c-1.77,0.76-3.44,1.31-5.02,1.64
			C742.04,130.14,740.14,130.3,737.91,130.3z M736.55,100.24c-2.65,0-4.77,0.87-6.35,2.6c-1.58,1.73-2.51,4.12-2.79,7.17h17.28
			c0-3.15-0.7-5.57-2.11-7.25C741.17,101.08,739.17,100.24,736.55,100.24z"/>
		<path d="M779.91,120.69c0,3.07-1.14,5.45-3.43,7.12c-2.29,1.67-5.51,2.5-9.65,2.5c-4.38,0-7.8-0.69-10.25-2.08v-4.64
			c1.59,0.8,3.29,1.44,5.11,1.9s3.57,0.69,5.26,0.69c2.61,0,4.62-0.42,6.03-1.25c1.41-0.83,2.11-2.11,2.11-3.81
			c0-1.28-0.56-2.39-1.67-3.3c-1.11-0.92-3.29-2-6.53-3.24c-3.07-1.15-5.26-2.14-6.56-3c-1.3-0.85-2.26-1.82-2.89-2.91
			c-0.63-1.09-0.95-2.38-0.95-3.89c0-2.7,1.1-4.82,3.29-6.38c2.19-1.56,5.2-2.34,9.02-2.34c3.56,0,7.03,0.72,10.43,2.17l-1.78,4.07
			c-3.32-1.37-6.32-2.05-9.02-2.05c-2.37,0-4.16,0.37-5.37,1.12s-1.81,1.77-1.81,3.08c0,0.88,0.23,1.64,0.68,2.26
			c0.45,0.62,1.18,1.21,2.18,1.78c1.01,0.56,2.94,1.38,5.79,2.44c3.92,1.43,6.57,2.86,7.95,4.31S779.91,118.5,779.91,120.69z"/>
	</g>
</g>
</svg>
